<svg width="191" height="86" viewBox="0 0 191 86" fill="none" xmlns="http://www.w3.org/2000/svg">
<path d="M1.4965 57.7655H21.776C21.919 60.5882 23.8012 63.3306 27.5211 65.4025C31.4622 67.5975 37.5197 69.0801 45.9959 69.1779L45.9975 69.178C53.8225 69.2429 60.8033 68.7414 65.8432 67.3026C68.3627 66.5833 70.4382 65.6187 71.8915 64.3389C73.3601 63.0456 74.1898 61.431 74.1898 59.4702C74.1898 57.2473 72.9286 55.6572 70.8881 54.5183C68.8697 53.3917 66.0283 52.6657 62.6932 52.1424C58.6248 51.504 53.7065 51.1539 48.4876 50.7824C45.1667 50.546 41.7241 50.3009 38.3013 49.9674C29.4466 49.1046 20.6719 47.6491 14.1195 44.263C10.8512 42.574 8.15549 40.4143 6.2759 37.6259C4.39913 34.8416 3.31593 31.4011 3.31594 27.1134L3.31593 27.1114C3.28431 18.9843 7.49384 12.4221 14.9352 7.86796C22.3933 3.30357 33.0894 0.768188 45.9368 0.768188C58.7757 0.768188 69.9118 3.55964 77.8528 8.45872C85.6249 13.2536 90.3144 20.0471 90.6194 28.2344H70.2945C70.1785 25.4074 68.5446 22.6289 65.0813 20.5335C61.4247 18.3212 55.7155 16.855 47.4986 16.822C40.4166 16.6923 34.2559 17.1934 29.8482 18.6131C27.6426 19.3235 25.8388 20.2754 24.581 21.5268C23.3106 22.7907 22.6119 24.3468 22.6119 26.2055C22.6119 28.363 23.8798 29.9125 25.9099 31.0339C27.9221 32.1454 30.7557 32.8838 34.0839 33.4354C38.1017 34.1014 42.9511 34.5092 48.1002 34.9421C51.4647 35.225 54.9571 35.5187 58.4291 35.9022C67.2674 36.8784 76.0284 38.4383 82.5711 41.8496C85.8352 43.5515 88.5269 45.7041 90.4032 48.4563C92.2762 51.2038 93.3561 54.577 93.3561 58.7569C93.3561 66.9351 88.8537 73.5316 80.8895 78.1088C72.91 82.6948 61.4798 85.2318 47.7524 85.2318C34.0334 85.2318 22.3613 82.406 14.1779 77.4896C6.16488 72.6755 1.52722 65.8835 1.4965 57.7655Z" fill="#FFC700" stroke="black"/>
<path d="M118.426 49.8734V83.3513H99.325V2.64862H118.426V32.8844V33.3844H118.926H170.412H170.912V32.8844V2.64862H190.013V83.3513H170.912V49.8734V49.3734H170.412H118.926H118.426V49.8734Z" fill="#FFC700" stroke="black"/>
</svg>
