<svg width="36" height="36" viewBox="0 0 36 36" fill="none" xmlns="http://www.w3.org/2000/svg">
<rect x="0.4" y="0.4" width="35.2" height="35.2" fill="#FFC700" stroke="black" stroke-width="0.8"/>
<path d="M16.4971 6H18.5029C18.6812 6 18.7703 6.08843 18.7703 6.26528V29.6097C18.7703 29.7866 18.6812 29.875 18.5029 29.875H16.4971C16.3188 29.875 16.2296 29.7866 16.2296 29.6097V6.26528C16.2296 6.08843 16.3188 6 16.4971 6Z" fill="black"/>
<path d="M6.26744 16.6775H28.7326C28.9109 16.6775 29 16.7659 29 16.9428V18.9324C29 19.1092 28.9109 19.1976 28.7326 19.1976H6.26744C6.08915 19.1976 6 19.1092 6 18.9324V16.9428C6 16.7659 6.08915 16.6775 6.26744 16.6775Z" fill="black"/>
</svg>
