<svg width="48" height="48" viewBox="0 0 48 48" fill="none" xmlns="http://www.w3.org/2000/svg">
<rect x="0.4" y="0.4" width="47.2" height="47.2" fill="#FFC700" stroke="black" stroke-width="0.8"/>
<path d="M21.9961 8H24.6705C24.9082 8 25.0271 8.1179 25.0271 8.3537V39.4796C25.0271 39.7154 24.9082 39.8333 24.6705 39.8333H21.9961C21.7583 39.8333 21.6395 39.7154 21.6395 39.4796V8.3537C21.6395 8.1179 21.7583 8 21.9961 8Z" fill="black"/>
<path d="M8.35659 22.2367H38.3101C38.5478 22.2367 38.6667 22.3546 38.6667 22.5904V25.2432C38.6667 25.479 38.5478 25.5969 38.3101 25.5969H8.35659C8.11886 25.5969 8 25.479 8 25.2432V22.5904C8 22.3546 8.11886 22.2367 8.35659 22.2367Z" fill="black"/>
</svg>
