<svg width="48" height="48" viewBox="0 0 48 48" fill="none" xmlns="http://www.w3.org/2000/svg">
<rect x="0.4" y="0.4" width="47.2" height="47.2" fill="#FFC700"/>
<path d="M26.4281 24L38.7328 9.33281C38.9391 9.08906 38.7656 8.71875 38.4469 8.71875H34.7063C34.4859 8.71875 34.275 8.81719 34.1297 8.98594L23.9813 21.0844L13.8328 8.98594C13.6922 8.81719 13.4813 8.71875 13.2563 8.71875H9.51563C9.19688 8.71875 9.02345 9.08906 9.2297 9.33281L21.5344 24L9.2297 38.6672C9.18349 38.7215 9.15385 38.788 9.14429 38.8586C9.13473 38.9293 9.14565 39.0013 9.17576 39.0659C9.20587 39.1306 9.25389 39.1852 9.31414 39.2234C9.37438 39.2616 9.44432 39.2816 9.51563 39.2813H13.2563C13.4766 39.2813 13.6875 39.1828 13.8328 39.0141L23.9813 26.9156L34.1297 39.0141C34.2703 39.1828 34.4813 39.2813 34.7063 39.2813H38.4469C38.7656 39.2813 38.9391 38.9109 38.7328 38.6672L26.4281 24Z" fill="black"/>
<rect x="0.4" y="0.4" width="47.2" height="47.2" stroke="black" stroke-width="0.8"/>
</svg>
