<svg width="36" height="36" viewBox="0 0 36 36" fill="none" xmlns="http://www.w3.org/2000/svg">
<rect x="0.4" y="0.4" width="35.2" height="35.2" fill="#FFC700" stroke="black" stroke-width="0.8"/>
<path d="M29.4816 17.8073L18.8264 6.98249L18.1122 6.25654C17.9495 6.09222 17.7294 6 17.5 6C17.2707 6 17.0506 6.09222 16.8879 6.25654L5.51853 17.8073C5.35179 17.9762 5.22 18.1772 5.13097 18.3987C5.04193 18.6201 4.99743 18.8575 5.00011 19.0967C5.01114 20.0833 5.8191 20.8709 6.78976 20.8709H7.96171V30H27.0384V20.8709H28.2352C28.7067 20.8709 29.1507 20.6831 29.4843 20.344C29.6486 20.1775 29.7788 19.9796 29.8673 19.7616C29.9558 19.5437 30.0009 19.31 30 19.0743C30 18.5978 29.8152 18.1465 29.4816 17.8073ZM19.0443 27.9819H15.9558V22.264H19.0443V27.9819ZM25.053 18.8528V27.9819H20.8091V21.5913C20.8091 20.9718 20.3155 20.4701 19.7061 20.4701H15.294C14.6846 20.4701 14.191 20.9718 14.191 21.5913V27.9819H9.94714V18.8528H7.2999L17.5028 8.49046L18.1398 9.13793L27.703 18.8528H25.053Z" fill="black"/>
</svg>
