<svg width="48" height="48" viewBox="0 0 48 48" fill="none" xmlns="http://www.w3.org/2000/svg">
<rect x="0.4" y="0.4" width="47.2" height="47.2" fill="#FFC700" stroke="black" stroke-width="0.8"/>
<path d="M39.3087 23.7431L25.1019 9.30999L24.1496 8.34205C23.9326 8.12296 23.6392 8 23.3334 8C23.0275 8 22.7341 8.12296 22.5171 8.34205L7.358 23.7431C7.13567 23.9682 6.95997 24.2363 6.84125 24.5316C6.72253 24.8268 6.6632 25.1433 6.66678 25.4622C6.68149 26.7777 7.75876 27.8279 9.05297 27.8279H10.6156V40H36.0511V27.8279H37.6468C38.2756 27.8279 38.8675 27.5775 39.3124 27.1253C39.5314 26.9033 39.705 26.6394 39.823 26.3488C39.9411 26.0582 40.0012 25.7467 39.9999 25.4323C39.9999 24.797 39.7536 24.1953 39.3087 23.7431ZM25.3923 37.3092H21.2744V29.6853H25.3923V37.3092ZM33.4039 25.1371V37.3092H27.7454V28.7884C27.7454 27.9624 27.0873 27.2935 26.2747 27.2935H20.392C19.5794 27.2935 18.9213 27.9624 18.9213 28.7884V37.3092H13.2628V25.1371H9.73316L23.337 11.3206L24.1864 12.1839L36.9372 25.1371H33.4039Z" fill="black"/>
</svg>
