<svg width="272" height="20" viewBox="0 0 272 20" fill="none" xmlns="http://www.w3.org/2000/svg">
<g clip-path="url(#clip0_39_2512)">
<path d="M6.59842e-05 13.1831H4.91934C4.88935 14.4579 6.50911 15.7777 10.4085 15.8227C14.023 15.8527 16.8126 15.3577 16.8126 13.693C16.8126 10.0185 0.420004 14.3079 0.420004 6.20909C0.405006 2.35465 4.42441 0 10.3935 0C16.3627 0 20.787 2.59462 20.847 6.58403H15.9127C15.9427 5.29422 14.5329 3.95942 10.7535 3.94442C7.48396 3.88443 5.11431 4.40935 5.11431 5.99912C5.11431 9.5386 21.4769 5.62417 21.4769 13.528C21.4769 17.4124 17.1875 19.7671 10.8135 19.7671C4.43941 19.7671 -0.074923 17.1425 6.59842e-05 13.1831Z" fill="#1D1D1B"/>
<path d="M24.8663 0.434937H28.7508L42.0088 12.4482V0.434937H46.6581V19.3322H42.7437L29.5157 7.31892V19.3322H24.8663V0.434937Z" fill="#1D1D1B"/>
<path d="M51.1575 0.434937H69.5748V4.37936H55.8068V7.88884H69.3348V11.5933H55.8068V15.4027H69.5748V19.3472H51.1575V0.434937Z" fill="#1D1D1B"/>
<path d="M83.7777 0.434937H89.0119L100.44 19.3322H94.981L92.9263 15.7477H79.8333L77.7786 19.3322H72.3494L83.7777 0.434937ZM90.7217 11.8033L86.4023 4.24438L82.0829 11.8033H90.7217Z" fill="#1D1D1B"/>
<path d="M102.12 0.434937H106.769V10.0185L117.253 0.434937H124.032L116.413 7.04896L124.782 19.3322H118.513L112.648 10.3185L106.754 15.3727V19.3472H102.105V0.434937H102.12Z" fill="#1D1D1B"/>
<path d="M127.211 0.434937H145.629V4.37936H131.861V7.88884H145.389V11.5933H131.861V15.4027H145.629V19.3472H127.211V0.434937Z" fill="#1D1D1B"/>
<path d="M149.888 0.434937H164.931C168.845 0.434937 171.005 2.53463 171.005 5.4292C171.005 8.32378 168.575 10.1835 164.931 10.1835H162.981C167.51 10.4835 169.28 13.1831 172.385 19.3322H166.505C162.996 13.0331 162.261 11.5033 159.082 11.5033H154.522L154.552 19.3322H149.903V0.434937H149.888ZM163.986 7.88884C165.636 7.88884 166.356 7.28893 166.356 6.1041C166.356 4.7543 165.606 4.18438 163.986 4.18438H154.477L154.507 7.88884H163.986Z" fill="#1D1D1B"/>
<path d="M175.279 0.434937H179.929V7.54389H191.837V0.434937H196.486V19.3322H191.837V11.4733H179.929V19.3322H175.279V0.434937Z" fill="#1D1D1B"/>
<path d="M201.015 0.434937H219.433V4.37936H205.665V7.88884H219.193V11.5933H205.665V15.4027H219.433V19.3472H201.015V0.434937Z" fill="#1D1D1B"/>
<path d="M233.636 0.434937H238.87L250.298 19.3322H244.839L242.784 15.7477H229.691L227.636 19.3322H222.207L233.636 0.434937ZM240.58 11.8033L236.26 4.24438L231.941 11.8033H240.58Z" fill="#1D1D1B"/>
<path d="M251.978 0.434937H260.977C267.816 0.434937 272 3.70446 272 9.88355C272 16.0626 267.786 19.3322 260.977 19.3322H251.978V0.434937ZM260.977 15.4027C265.131 15.4027 267.456 13.513 267.456 9.89854C267.456 6.28408 265.086 4.39435 260.977 4.39435H256.627V15.4177H260.977V15.4027Z" fill="#1D1D1B"/>
</g>
<defs>
<clipPath id="clip0_39_2512">
<rect width="272" height="19.7671" fill="white"/>
</clipPath>
</defs>
</svg>
