<svg width="36" height="36" viewBox="0 0 36 36" fill="none" xmlns="http://www.w3.org/2000/svg">
<rect x="0.4" y="0.4" width="35.2" height="35.2" fill="#FFC700" stroke="black" stroke-width="0.8"/>
<path d="M29.3349 25.6687H27.6837C27.5548 25.6687 27.4474 25.7781 27.4474 25.9094V27.8406H8.1208V8.15937H27.4505V10.0906C27.4505 10.2219 27.5579 10.3313 27.6868 10.3313H29.338C29.4669 10.3313 29.5743 10.225 29.5743 10.0906V6.95937C29.5743 6.42812 29.1538 6 28.6321 6H6.94224C6.42048 6 6 6.42812 6 6.95937V29.0406C6 29.5719 6.42048 30 6.94224 30H28.629C29.1508 30 29.5713 29.5719 29.5713 29.0406V25.9094C29.5713 25.775 29.4638 25.6687 29.3349 25.6687ZM29.9058 17.8031L25.5506 14.3031C25.388 14.1719 25.1516 14.2906 25.1516 14.5V16.875H15.5144C15.3794 16.875 15.2689 16.9875 15.2689 17.125V18.875C15.2689 19.0125 15.3794 19.125 15.5144 19.125H25.1516V21.5C25.1516 21.7094 25.391 21.8281 25.5506 21.6969L29.9058 18.1969C29.9351 18.1735 29.9589 18.1436 29.9752 18.1095C29.9915 18.0754 30 18.0379 30 18C30 17.9621 29.9915 17.9246 29.9752 17.8905C29.9589 17.8564 29.9351 17.8265 29.9058 17.8031Z" fill="black"/>
</svg>
