<svg width="48" height="48" viewBox="0 0 48 48" fill="none" xmlns="http://www.w3.org/2000/svg">
<rect x="0.4" y="0.4" width="47.2" height="47.2" fill="#FFC700" stroke="black" stroke-width="0.8"/>
<path d="M39.1132 34.225H36.9116C36.7397 34.225 36.5965 34.3708 36.5965 34.5458V37.1208H10.8277V10.8792H36.6006V13.4542C36.6006 13.6292 36.7438 13.775 36.9157 13.775H39.1173C39.2892 13.775 39.4324 13.6333 39.4324 13.4542V9.27917C39.4324 8.57083 38.8718 8 38.1761 8H9.25631C8.56064 8 8 8.57083 8 9.27917V38.7208C8 39.4292 8.56064 40 9.25631 40H38.172C38.8677 40 39.4283 39.4292 39.4283 38.7208V34.5458C39.4283 34.3667 39.2851 34.225 39.1132 34.225ZM39.8744 23.7375L34.0675 19.0708C33.8506 18.8958 33.5355 19.0542 33.5355 19.3333V22.5H20.6859C20.5059 22.5 20.3585 22.65 20.3585 22.8333V25.1667C20.3585 25.35 20.5059 25.5 20.6859 25.5H33.5355V28.6667C33.5355 28.9458 33.8547 29.1042 34.0675 28.9292L39.8744 24.2625C39.9135 24.2313 39.9452 24.1915 39.9669 24.146C39.9887 24.1005 40 24.0506 40 24C40 23.9494 39.9887 23.8995 39.9669 23.854C39.9452 23.8085 39.9135 23.7687 39.8744 23.7375Z" fill="black"/>
</svg>
